<mxfile host="65bd71144e">
    <diagram id="MXovLjMzIaECebrITrRQ" name="Page-1">
        <mxGraphModel dx="1084" dy="453" grid="0" gridSize="10" guides="1" tooltips="1" connect="1" arrows="1" fold="1" page="1" pageScale="1" pageWidth="850" pageHeight="1100" background="#ffffff" math="0" shadow="0">
            <root>
                <mxCell id="0"/>
                <mxCell id="1" parent="0"/>
                <mxCell id="2" value="&lt;font color=&quot;#000000&quot; style=&quot;font-size: 14px&quot;&gt;Amazon Redshift&lt;/font&gt;" style="sketch=0;points=[[0,0,0],[0.25,0,0],[0.5,0,0],[0.75,0,0],[1,0,0],[0,1,0],[0.25,1,0],[0.5,1,0],[0.75,1,0],[1,1,0],[0,0.25,0],[0,0.5,0],[0,0.75,0],[1,0.25,0],[1,0.5,0],[1,0.75,0]];outlineConnect=0;fontColor=#232F3E;gradientColor=#4D72F3;gradientDirection=north;fillColor=#3334B9;strokeColor=#ffffff;dashed=0;verticalLabelPosition=bottom;verticalAlign=top;align=center;html=1;fontSize=12;fontStyle=0;aspect=fixed;shape=mxgraph.aws4.resourceIcon;resIcon=mxgraph.aws4.redshift;" vertex="1" parent="1">
                    <mxGeometry x="617" y="93.25" width="78" height="78" as="geometry"/>
                </mxCell>
                <mxCell id="8" style="edgeStyle=none;html=1;entryX=-0.128;entryY=0.5;entryDx=0;entryDy=0;entryPerimeter=0;strokeColor=#000000;strokeWidth=2;" edge="1" parent="1" source="3" target="2">
                    <mxGeometry relative="1" as="geometry"/>
                </mxCell>
                <mxCell id="10" value="Copy" style="edgeLabel;html=1;align=center;verticalAlign=middle;resizable=0;points=[];fontSize=12;" vertex="1" connectable="0" parent="8">
                    <mxGeometry x="0.3691" y="3" relative="1" as="geometry">
                        <mxPoint x="-31" y="3" as="offset"/>
                    </mxGeometry>
                </mxCell>
                <mxCell id="3" value="&lt;font color=&quot;#000000&quot; style=&quot;font-size: 14px&quot;&gt;S3 bucket&lt;/font&gt;" style="outlineConnect=0;dashed=0;verticalLabelPosition=bottom;verticalAlign=top;align=center;html=1;shape=mxgraph.aws3.bucket_with_objects;fillColor=#E05243;gradientColor=none;" vertex="1" parent="1">
                    <mxGeometry x="417" y="101.5" width="60" height="61.5" as="geometry"/>
                </mxCell>
                <mxCell id="6" style="edgeStyle=none;html=1;entryX=-0.167;entryY=0.5;entryDx=0;entryDy=0;entryPerimeter=0;strokeColor=#000000;strokeWidth=2;" edge="1" parent="1" source="5" target="3">
                    <mxGeometry relative="1" as="geometry"/>
                </mxCell>
                <mxCell id="9" value="Upload to S3" style="edgeLabel;html=1;align=center;verticalAlign=middle;resizable=0;points=[];fontSize=12;" vertex="1" connectable="0" parent="6">
                    <mxGeometry x="-0.3799" y="5" relative="1" as="geometry">
                        <mxPoint x="19" y="5" as="offset"/>
                    </mxGeometry>
                </mxCell>
                <mxCell id="11" value="" style="sketch=0;outlineConnect=0;fontColor=#232F3E;gradientColor=none;fillColor=#BF0816;strokeColor=none;dashed=0;verticalLabelPosition=bottom;verticalAlign=top;align=center;html=1;fontSize=12;fontStyle=0;aspect=fixed;pointerEvents=1;shape=mxgraph.aws4.role;" vertex="1" parent="1">
                    <mxGeometry x="577" y="101.5" width="35.45" height="20" as="geometry"/>
                </mxCell>
                <mxCell id="14" value="" style="group" vertex="1" connectable="0" parent="1">
                    <mxGeometry x="127" y="88" width="110" height="130" as="geometry"/>
                </mxCell>
                <mxCell id="5" value="" style="dashed=0;outlineConnect=0;html=1;align=center;labelPosition=center;verticalLabelPosition=bottom;verticalAlign=top;shape=mxgraph.weblogos.json" vertex="1" parent="14">
                    <mxGeometry x="20" y="6.349999999999994" width="70" height="75.8" as="geometry"/>
                </mxCell>
                <mxCell id="12" value="" style="shape=image;verticalLabelPosition=bottom;labelBackgroundColor=#ffffff;verticalAlign=top;aspect=fixed;imageAspect=0;image=data:image/png,iVBORw0KGgoAAAANSUhEUgAABIoAAAEnCAIAAABJyT81AAAACXBIWXMAAA7EAAAOxAGVKw4bAAAgAElEQVR4nOzdf1yT190//nODCTFgJDaN2kYYRaHKVKwUrYXqCvfHTVkfnxtbuvJ93HVTu/5wZe7b1p+zam39VXvP2Wl/UTd7fx90ZcK+3w5d2aTzBypqrKBViIhMiBXTSDCSGBLj5/vHtXEzleSQXOdcV668nn/s4aye6xiuJNf7nPd5vwkBAAAAAAAAAAAAAAAAAAAAAAAAAAAAAAAAAAAAAAAAAAAAAAAAAAAAAAAAAAAAAAAAAAAAAAAAAAAAAAAAAAAAAAAAAAAAAAAAAAAAAAAAAAAAAAAAAAAAAAAAAAAAAAAAAAAAAAAAAAAAAAAAAAAAAAAAAAAAAAAAAAAAAAAAAAAAAAAAAAAAAAAAAAAAAAAAAAAAAAAAAAAAAAAAAAAAAAAAAAAAAAAAAAAAAAAAAAAAAAAAAAAAAAAAAAAAAAAAAAAAAAAAAAAAAAAAAAAAAAAAAAAAAAAAAAAAAAAAAAAAAAAAAAAAAAAAAAAAAAAAAAAAAAAAAAAAAAAAAAAAAAAAAAAAAAAAAAAAAAAAAAAAAAAAAAAAAAAAAAAAAAAAAAAAAAAAAAAAAAAAAAAAAAAAAAAAAAAAAAAAAAAAAAAAAAAAAAAAAAAAAAAAAAAAAAAAAAAAAAAAAAAAAAAAAAAAAAAAAAAAAAAAAAAAAAAAAABmYqWeAEQ8fVr2lFc+SZ290Od2OtvOSD0dAAAAAIBI9W9STwAimC4pI63wFdOjc3p/x9nedO6P71gPlks4KwAAAACACIXwDEKhNSaPK17VNzDrC0EaAAAAAEAIEJ7BwKh1htTZL47+4cuxqrjAfxJBGgAAAADAgCA8A1oxKk3KzPnpTy5WxyfS/y1bQ83Xn6zEmTQAAAAAgKAQngEVU27RuOJVWoMphL/r9/WcLVvTUrVN9FkBAAAAACgJwjMIwpiZ/91n39KNejDMcayHKsxb5okyJQAAAAAARRok9QRAvvRp2WOLlhon5ok1YIxKc8vnEWs0AAAAAACFwe4Z3EXgwowD5bZbz5atQY0QAAAAAIDAEJ7Bv1DrDGOLliU9/p9BCzNSaq0uPb1zBTbNAAAAAACCQngG/xCj0qQ/+VrKzAUDKswYgLO96eT7LzvOHevvD+jTsie98C4h5OtPVtjq94pyUQAAAACAyIXwDEiMSnPf1CdCLsx4J7+v5/yf3rXseru/TTO1zjBh3qa+yZOOZnNj+XoEaQAAAAAQzRCeRTuxCjP2sjXU1H/4C7ft4l3/a+DmaWiSBgAAAADRDOFZ9NKnZU/48Xr9mCyxBnS2NwVOU6QMBa2HKs6WrekvwAMAAAAAUCqEZ9FIl5SRVviKWIUZCUU240BLQQYdEAAAAABAeRCeRRetMXnMEyUpMxeIOGbQbMb0J18b/cOXQygFiYr8AAAAABBVEJ5FC7XOkDr7xdDCpP4EzWY05RaFX3EkcPgHAAAAAKAYCM+UL3A1jtB4XV2WXZtaqz/uL/lQl5Tx3WfXGifmiXW5I+ueClCjHwAAAABAAQZJPQFgS5T9q9sELt0hemNrQkiserBKqxNrNJCEKbeIEBI39N6ea9/e9Rdi8V7vDPpnfG6n3+MihNz0dBNCbnpcN29046AjAAAASA67Z4olesV8QpfNOGH+2yJu0wkXNW+Zh2r7ke5/vXdG3GUCRryuLkKIp7PD7+l22S76uh1XLUddV/5+rfUU4jcAAABgDeGZAunTsscWLRUrsVAQNJtR9DL9AkvlZtRvVIZICc/64/f1XD1b62g5eelQJRYLAAAAgBGEZ4oy0Pr1lFqrSxvL13ud9rv+VyGbUdxqkIQQt916/Fc/CXDeTK0zJD6Q2XWhvr+JgaxEenjWl7O96fLxqos1n6BiDQAAAIgL4ZlCsDjxRQhxNJtP/W5ZgBgptWChuEVHBK3Vpad3ruhv06zvP9bv67l8rKplz/soHCJzSgrPetkaatr2/x69HwAAAEAsCM8intBYLGXmAnFjJK+r69THrwV47mRxto0Q4rZb6z/4eX/H2wJ0UbM11DSWb0CQJluKDM8Ebru1Zff2AKm/AAAAkStGpRk0OGGQJj4ucXhvqTb1kGG9f6C3KJdQecvTdQUFt8KB8CyCCRXzU2e/JO5Tr9/X0/blfwfIZmSUQkmCbZoZM/Mzn/914H+sraHmfNX2AMVLQCoKDs8EXldXa3UpjkoCAECk0xqTR2YX6EdPjjcmx+lHhPb17XV1ub4577JddF1pxbHtAUF4FqlMuUVp//GK6JtXtoaarz9Z2d9bSAgIxxWvEjeFkhDibG86+f7L/e19qXWGCfM20QeE6GQtQ4oPzwRuu/Vs2RqkOwIAQIRS6wz5W0+Ifm7lLwsn4MGMEsKzyMOoRmLQx0pG2Yx+X8/5P70bYM8htGL9QfcAgbMoCc8EgZcbAAAAZMuUW5RV8pHow5q3Poe1S0poSx1JdEkZ3312rbgV8wlFgMQum9HRbD75fkl/m3VaY3LmT38V2r83VhWXMnPB/TlPBj5BB8CCbtSD09/6K9pCAABAxLknfQqLYYeY0lkMq0gIzyKD1pg85okS0YvXE0KshyrOlq3pb7s5QCmOMAmN1FqqtvX3B1ILFoafRamOT8wq+Shp+o/qNhbjKRk4Sy98deTDBWiqDgAAESR+RAqTYYczGVaREJ7JnVpnSJ39IosAydne9PUnKwJU0WCUzUiCnQ0LZ9PsrowT8x5auN28ZZ5YA0IIBg1OkHoKEtCNenD6hr+dfO9n2MIFAICIoBl2P4th443JLIZVJIRn8iXU4WDRVUzYuQpQB5xdNmPQev2hnTQLynWlVdwBASjFquKySj66J31KQ+krUs8FAAAgCM2wESyGjdMzGVaREJ7JlCm3aFzxKhalFKyHKk7tWNxfwQx22Yw0l35o4XZGJ9wsu94WfVgAeikzF6gS9F9tewlJtgAAIGex6sEsho0bei+LYRUJ4ZnssEspdDSbT/1uWYBqcuwuHbjZNCFEn5b98C9+yygcxTMxyIHp0TnxxuSDq2bjbgQAAHmKUWlYLNATQmJVcTEqDb4BaSA8kxFGhRkJRUrhQBuL0RMK3AdoNk1EqgJy10vjzA/Iin5M1tQlZShUAwAA8sT0oPigwQlefP1RQHgmC+zOetG0/2J03ItQdH9il9Dotlvr1hcFrpgn7BYOGpzQaTnasud9dKkCDowT8xChAQCAPA3SxLMbXJM4HN1oaSA8k5haZxhbtCzp8f9ksZVsa6j5+pOVAUIUXVLGpBe2it7hmhDi9/WcLVsToPqIYOqSMha7hYEPuZE74mGtwWR6dE7QUpYAojBOzBs/9y1UCgEAgKgSyzL2UxKEZ5JhV5iREOK2W8+WrQmQ18e0BEjguvl9ebu7xL100DRO0v9uoW7Ug9NWVDiazY3l6xGkAVMpMxd0d1wI0PcPAABAYVRandRTiAwIz6TBrjCj39dz/k/vWna9HWDbSp+WPemFdxmVAAkcFt7mq20vEULESm4MGhbSdFTTj8matqLC1lDTWL4B6Y7AzrjiVZ3njuMeAwAA+RikYXj2TD1kGLvBlQThGW/sqiMSivgkRqUZP/etlJkLRL80TVh4p1s+j3nLPNeV1vTCV8O8+tmyNYH3IgZ0xM44Mc84MS9okiRAyGJVcQ//4rd7SybjEBoAAEQD1NanhPCMH31a9oQfr2dx0IsQQnNuil3xekez+eT7JYHrcATQ+Onaq41HMp//dWhzC3p1mk2zuzI9OseYmWfZtQlJaOFj1EclomkNJhxCAwCAKIHdM0oIz3hgV5iREOJ1dVl2bQpchIPdphnlWa+k6T+6Ul/TfuCz/naibPV795ZMHugkRd80u5M6PnH83HWmaYXHt8yjOU0HMCApMxdcNv8ZZx0BAEDxWFRbUKR/k3oCCse0MCOhKFFICNElZWQt2sEinbK1ujRwyf7btq1oqvzTJ38GzeRU6wxZJR+KVRkSXdTC9MMyG6N3QaRztjftWzIdKY4AACA5fVr29Lf+ymjw1upSJIzQiJV6AooVo9I8+PSyyS9/YBg7LSZW/F1KR7P52H/NvbB7u7/HHeCP6ZIypm/422D9CHGv7mxvqtv0zN//+tv+ri7887N+XjrkvjH/85uxg/SjH3pg1guxak2n5dj/uXXzzr/o6rjQWl3qu3FdP2ZyrFpz18G9rq6T77985v953ee61t8MTblFj6zYpRs1boD/sn7FxA66b8oT/zZIZf/6gFhjRpX0Oa+xeCMoQNxQg7fb4Th3XOqJAABAtBt8z/3fyXuW0eCuK63f1P1/jAZXEjwtMZFasDB19kssTnkRunzCXt2XW3qufSviTGhyKY2Z+QEOksWq4tILXx312I9adm/vLy+xpWpb+4HP7rrxGHTDkF2ra0JI/PAUFsNClEt/cnHQJoEAAAAQDbB7JjJjZv6UxZ8mPfY0o94OrdWlxzb/p6OZdqH9/9y6+e3p/ffnzOlvJ2pArIcqjv/Xj20n/3rXjS9CiFpnmPTibzL+r9VB//kqrW54Zt59j/xHV+spz9VLd/4Bf4/7yld/sR4sj0s0xo9MjYkdRLNhaMzMn7byj/c8OHVA/y5K1kMVX217qb9/OwSG3bMAYtUabKABAIDkmO6eeRyX2w98xmhwJcHZM9EwLcxICLE11Hz9ycrQqiPqkjKmLisPZw/NbbfWf/DzwAUMQi7CYancHLgiv1pniB/xQOAOUUKj7TAL9Adgqdzc+OlaRoNHA9Znz9x265UTX3R3XOi59m3vbwo1fNVDhqnjE1UJenVCombY/ZphI2R4Otltt6LIPgAASIvp2TNHs3n/cnEqAigbFrNFoEvKSCt8hVE2HaHo9azWGQghAfL9nG1nalfNmrq0PIQCITQNzUKuXC9IL3x15MMFJ99/ub8AzOu0S1X+hKAoSCRorS49vXPFgGIbrTE54b4xQ0zpCSMeSHwgU/ed8dJWLtEaTPdNfQK3GQAAKFUsy57XSoLds7CwLswYNDSKUWlSZs5Pf3JxrHpw25f/3fz51sA9qQd6KIumz3XKzPnjileJ8gqEtkOVWrBQrAncyW23Hv/VTwJv3AmdAwghgZsHRLn//Yd+67iEydZQc/jNwjAHiVFphqZMGDF5pnH8DHZ74IFhWREAAKRlzMyftqKC0eBuu/UvL2YwGlxJEJ6FSEilG/3Dl9mtuFsPVZwtWxMgNLqzBr1QtyNwHzDKYIayz/WkF94Vd8/K1lBTt7GYchtEa0x+eNEOdg/TjmZz4HZnd9bu9/t6Lh+ratnzfuCILgqxC8/2r/h3cV9tXVLG/Y8WpsxcwD8H8stXpoXc3h0AACBMptyirJKPGA2O8IwSwrMB692wYvfoFjQ0CpxMGHTLS5eUMemFrf1FNdL2uSaEWA9VmLfMC/rHwuw3TTONr7a9FOBF0KdlP/yL3/Z3os/WUNNYvgFBWi9G4Rm7z3rhnc6uBOtd4YgjAABIKLVg4fi56xgN7nV17flxMqPBlQTh2cCYcovGFa9i97gWdPuLctfO7+s5W7Ym6DbabUEmTdtoEqxufpjcdmvd+qLAGwhqnWHCvE3sDvtRvno0m5DhFHRRGEbhGWUwHzLWJWdug5VFoBej0iSMTO2+3IKKMgAglmm/rAy5lACN//epoewGVwyEZ7SMmflji5axy6OjCY0GGhzaGmrMW38aYEC1zpA6+8WUmQti1YMvH6sKnEtJ2MdFQSdMGAeHhBCvq8u8ZX6Arcs7ExqDCpqnGg0YhWd8tpv0admPLP8Dn1xH5DfCndQ6Q+IDmUIlm/gRKX0LkMrkhhFObw5Le1iYYcL96YMGJ/R9y3hdXZ7ODk/nJVdH61XLUefFM3KYNkBgMSqNRj98kCZBM2yk8DvqIcP6+8Pe653CL3xuZ0/XFY/jSsQtnWiNyXlbjjMtlPV58fCIe1n4Q3gWnC4p47vPrmW6lhB0jyXkqv00lS0IIWqdIWhBC6bJhDQbVhz2MZztTXUbigLnhYbWooCmAKayMQrPzFuf41PtUGtMzlmzh0OioxzyG4UnkoT7xqiHDBtiSlfHJ8aPSFFph8ZqEgYNThg0OCFWPbj3+9vv6/F7bxBCbt7oJoT0ODpctou+bofQ5MB7vbPrQj3q5YQgRqUxZOSMzPrBPeNyAhzxlTY80yVl3DthhmlaYQi1T72uLlt9TceJL2wNX+IOAfnQGpNHZhfoR08elj4lzM98YVXC2XbGcf7E5WNVcl6ljVFp7pv6BNMEMcHht+Z4Oi/f9HQTQm56XISQmze6o/bRqD8IzwLRGpPHFa9it1lEKPqJhT8HmsgnsDDr5gdFE0MGPi8niqCHzUy5RZNe/E04q0peV9epj1+LzuLpkR6eEULUOsOMjftZf3VJUr9Ra0welj5liCk9fniKLilD9B4Vbru1+5LF0XLyauMROUdrQlwq/HrQPwtA37lqHjf0XqG9ntBY7za9nfdcV/7u6rgQwj9Wa0we80TJ/TlP0iyHSRKeqXWGUY89nfz4s6LcKkJFpbZ9ZYGLUfU3E0LIIE288H+Fn1qsJl6l1f3jD/TZ6xB+cL0/td7/1Ps6qxL0hBBft6Oh9JXQ/i13Tk+YW4CJ3Xk79TcxQog6IZEQwiFnvrcisbe7S/gdX7dD+IXX9Y/f6d0s6tttkvzrJpLf4xJ+LTyOy3xDyZRblPqD55nWG2v58wff1H0u+YvQ+5kvrL4l3J/O85T1XfVd6bt5o9vv6SaE+NzXyD9vQuEOFOu9KXMIz+5OyPpjWphRiJoCVOAQtzhk0NijP3ceUROX9VDFqR2LAz/BhB8XBXV65/LAEezEBe+IVQolaO0W5YlRaZ4ou8JiZNHLNgamS8qYvuFvTG9Fv69n99wk1l/evY0E9KmTEkdP5lyj0tnedPl4VceJarnVzhn7zErR9+eDNq7sK4SPfc7hmRA6Mmon42xvOvfHd+gXXLTG5P+17ZTo0xDxCGjWoh0sVng5fO6xeC8Qvgtq9IRCUGItNwTltlvbD/y+Zfd7Ui1UGTPzpywuk7bVZ8ii5Oga2lLfjkNhRkJxGEn0GiSmR+eoExLpa9YT9htWNO2eWZ92I2wOmwVmnJiXt+U4Wl1HImfbmbNla9hVtSKExKrihqZMYPTsJaSiDc/Mu2dcjoTfzbpRD+pGPZhe+KrwmHKx5hMFr1ZoDaZxxato3uysO4WESejzyahgr0A36sGsko9Sf/B8Y/l6mp20uMTh7CYD0YDPI99ttAZTeuGrKTMXtFaXSnLkYXTBSxEam0UPhGf/gnVhRkKIo9l86nfLAjx7sTvqZpyY99DC7TRl7jh0dXO2N5m3zAu86Mu6CgihOGwWuHp+yGJVcVklH42Y/P3QtjRBQi1V20zTCpk+Qw9Le5hFJ7eRDxfwWRumJzympBe+quxGFFqDSWtMDhyC8iw/EwLWaRR96cdkTVtRQVNRqTdRMNpE7T9cXBwe+QJQxycKQRr/Iw8J96fzvByEAOHZP9zZ4ll0QVNchLVJRkkjAteV1qB/hkWz6du0Vpee3rkicF81DtXMORw2C2xkdoEm6is6hqn3YANPjeXrp62oYDe+fvRkUcYRjnozPUohFuPEPOPEPAU3oki4b0yAd7qcc404nPu9K9Ojc4yZeYE7zQSooQcQgFR39Z3U8YlZJR8lTf8RzyMPkh8zg6AQnvEozEhTtY91k+WgNUgI42bTgqCZhIQQXVJG1qIdTONDmnIpjDLv+zr53s8Qm0UiW/1eZ3sTu1tUlxTuuRdJemqHzzgx7/F38lqrS4N2X2SE3SdwgECCw9nakFE2eGREHZ84fu664Zl5/TVcuWtpFhCFbDdyw8QhOSgExol5MzYd4LONJlTTAZmL6vCMQ2FGQlEHIuSi+QOag+T9xCinweFpIGihSNEPm92VPE9IRxyhGhh/F7/8hN0JtPgRKeH8dQ4b4EylzFwwfPL3gy4nsdBbkk50/QUSqQULmR5lDFmMSvPQwu2svx9pGCfm5W89EXRdDyAoDou/IRO20e5JnxI4tyh8vWVOQc6iNDzjUJiREOJsb/r6kxWBa05wqHsRdD2GwzRodqv4BEVBQ0Q+e3eoCxLpLh+rYvdUHauKC3pUqT/6tOyc1VWyWhgOgdZgmraign8LOM67Z6bcInnGZmqd4ZGln8kh9Uugjk+csrjszo/NhBEPSDUliDhy3qbulTJzQeIDmUc2PM0ufaC3ZQjIWdSFZ3yq9HhdXZZdmwIXzecwDZrdKtZJlYQQZ3vTyfdfDnzon8PeHSGktbo0cMcMY2Z+1qKPmb4afl/P0U3FWAaOdG7bRab5jYGPKgUw4cfrZf78QS+98NX44SlKLZ9jzMyf9OJvpJ7FXXDrwD4gQjmluKH39l3mC3OfGaKHiK1xWNOPyZqxcX/tqlk4+xDNois841OlJ+jBCQ5lSGg2zVg3mxbIpAoIzYYVhywjmthMKK4dpx9x5cQXl81/tp+pVeSzqQJcPVvL7l0ccs2DWGWtjIbQEUSeblv00adly7MWiDxjs17CR3RvhIYCdBBUjEozdUkZ60cdcWkNppw1e+rWF7GokxQbycmNfl+P1FPgJFrCMw7nuwghjmbzyfdLAryduJ12oznixWELMWiIyKd6UtAi/nxOWXhdXUfWPRV4F1GXlDF1WbnwbJQyc0HKzAVeV1drdamyG0NFqKuWo+yWY0OueeBsOyPPkxUhM07My12z++Cq2REdofXd51HrDI8s/wNis9CMn7tOPWRY46dr1TqDzKfKDkpWUpJbmi49rcGU88ae2tdniR6hRXRXBr/3htRT4ET54RmfiCho0Xw+xYLkExEFLYhCeCWC2xpqAi+98/n49rq6gn7O3jW1UmiNovjGUJHIdeXv7AYP+VBNx4kv5FDOQVz6MVlTl5QpYA9NkFXyoQzL4ql1BvnHZoL0wlf1qZNcHcH7xITm5g1pCg6BuNQ6Q87q3ZG7XKWOT5y6rBxZjtFJyeEZhzZihLpoPoekSuuhilM7FgfYNOMTIlJWAWFdjERweufywDNh1HX6Nm67NWiWQtBgVWgM5Wg2N5avj7ija4MGKyrjTuDquMBucFWCPrS/2Gk5Ku5MZMI4MW/83LcCnx2VM82w+4VfGDPzZZhnFaPSPLL0s4iIzQTGiXlkotSTULSQP4JkQrilIzc2E2gNpqlLy/ctmS7iylREb71Gz9KJMsMzPoU3CCHWQxVnA7YV5tBUjdD1NONTaztoGiHhVQWEpsEan+07Z3tT3YaiwKtf9Mfe9GOypq2oiNAgTWG8Trvf1yO3FDW37aKj2RyJyTxBpcxccNVyNEJLnsaPSIlRaW75PGOLlkk9l7t4aOF2Rd4zIDd8WtXFqDS5a3Yr45bWjXpw6pKyw28WSj0R4EqB4RmfrSqaovkc9u4IXe0N1s2m6WfCoQoIIcTRbD6+ZV7giIhD12lhJkEr5IZQUao3SDv1u2VId5SQ33uD0RtcnRD60pLt9D5lPJfcacL8tzstRyMx1SdWFXff1CdcV/4uwx9NasFC5SXEgjz1XPuWw1UUttxgnJg39pmVnLuMyBN2zyISh4qI5J9F8wOnzHGoVk/kVLCeZvtOKEjI4ROTJkrkU8fJeqgicE3wMEuS6MdkTX/rr0G3cIGdmze6ZXiI6NKhSg5LD5JQxyc+vGjH/uWySw6kIc8y+rqkjHHFq6SeBUQLDrtnY59ZqbzlhtE/fPlq4xGkzEQPhYRnfHII/b6eti//O3DRfD4lImkOvHE73xX0zBvhlUZIUz1fa0yeurScQz560B5rYkWJpkfnjMwuCHo/AAvyXMlztp1h2pNNWvoxWRG6kCy3PFjBpBe2ynNiACEwZuYrcnEqVhWX+fyv9y2Zzq5ddUTwe+T4nctCxIdnQg4hh8w9W0PN15+sDHCqittMgpbvJ7y272jCIW5RottuPf6rnwTdS2TddVpgqdwc+PFR3HKRsaq49MJXRz5cEHQ3FcQl25Inl49XKTU8I4SM/uHLHSeqcauHL7VgoZJywCDKaY3JWYs+lnoWrGgNpgnzNpm3zJN6IlLyua9JPQVOIjs8Sy1YOK54FeuVv6BF8wmXNmKELq+ST7NpQne+i09dRELd6o3D3UIIMW99LugOHosC1rpRD+asrgpaNlNhBknahVm24VnHiWpFLiELYlVxE368nkWKY6RXqxsQrTE5/cnFUs8CQDSZP/2VDLPNRWR6dE7bvjKkOEaDSA3P+DTvoskh5FMRkdB1EuMTJRJCLJWbA78s3KqAEIqtKhJS+Y0Q+H09RzcVB/7o7Nt4WnSxqrjxc9d1njuOjQU+2L3XvN1d4fx1x7ljbrs1guqkD5R+TJYpt0j0Ko6+boe4A8rZuOJVyn6WVTAOJ7jCqU4kidSChTJsWSG6zOd/vbdkcjgHGbzXO0WcDzASqeEZIST+vtFMxw9acYFn2l7Q7TtuhTdocgi5TYamDTe3QiBeV9eRdU9Jnl3pbG+61nqK3fjQS60zSD2FQNoP/F7BG2iEkHHFq76p+1zc85bRs3umS8pQXvkEiFpaY3KUVLjRGkzpT74WzuHb7m+aRZwPZ2EuXEaQGKknECJn25na12d5XUx+To5m8/4V/27uP3MvRqVJLViYv/UEh6+31urSfUumB4hAhMnkbTnOIRyyHqrYWzI5cARiyi2asekAh8k425tqX58VNGqdsXE/h9jMbbfWvj4r6CszZXEZ09jM7+sxb5kXVQVCYjXxUl068YFMdoO7rrSGOcKlQ5WizES2tAbTfVOfkHoWkeq7z0ZebRWA/vA5uSATKTMXhLM46HFcYfTwDCKK4N0zIULLeWOPiM+7NPtUfMr3E4rWaoQQXVJG1qIdHCZDs0/FbTuRUNSsJ4To07IfWf4HDtk7zvam2tWzg558o2w8HY6zZWsC14yRyiDpgih2hpjS2Q0efv6Js+2MUvtT90r9wfMR2qVaWvq07GhIA4MoYczM54jff+AAACAASURBVLkV7LZbOy1HXVdahU9p9ZBh8cNTdEkZ3KoxqeMTxxYtC1waOoBbPo+tvgab5zIXweEZETVCozlmJuyec7inaSYjHO4a/cOXOawY0Rx741YFhBByeufyoNUv+JTyJ3RVSfi0wLYeqoiqoiCS04+ezG5wUZq3Wg9XKjs804/J0hqT0fRvoFJnvSD1FGQteop3K8N3n32Lw1W8rq7W6tJLhyr7WwPVGpOT854d9diPODwIJT3+n82fbw35o69lz/sjswsicb8xeo4HR3Z4RkSK0IIeM4tRaVJmzueze05TN59bPRK/r4emEiCf8IMQ4nV1mbfMD1q2iNt8aDbx+FQlcTSbv9r2EuurQK8YlcaYyXD/wXXl7+EP0n7gM8Xn/IzMLsCqxIBojckjswukurqj2dx1ob6740LvAkTc0HuF/Ydh6VMUXMwGGDHlFrF+FhJWzFt2vxd4HdZtu9j46VrLrrdTZs5nXaQtVhU35omSkDfQHOeOHd1UnPn8ryPiHSekYgpdRqMnLTPiwzNCiLPtzJF1T4WWxuZoNp/63bKg5Rz4ZDPSxEIxKs34uW9xeNwnhDjbm8xb5gUOFLlVASF0pfxjVJqHFm7ns2tP03iaz2TcduuRDU9H1ZGzXiqtTpLrGjJymH77ujouhD+I12m/erY2hDQ2t93afcni6mjt7rhw3WrxuZ09XVduelw3b3T33mYxKo1GPzwucbhKqxtiStePnizJ4/XwzDyEZwOSnPcs/4jd0Wxu+fMHtoYvAz/g6pIy7p0wI/nxZxXctQ/ElfYfIYYolGgehPq65fO0VG27fKyKdYuj+3OebCxfH3KXalv93r+8mKE1JifcN0Y9ZJjwm3FD7+259u096VPYPWTaGmqu1NeQPhkiQo6oz+30e1yEkJuebkLITY+LEBLNPbiVEJ4RQhznjg00QqMsh8inhxihSyA0ZuZzW+1orS49vXNF4Cd+Ps2v6ecjbq/nwIImWKp1hqySD/lUjKxbXxTNn2KSSJpRzG5wt90q1g/0fNV2mpvQ7+u5erb2Sn3Ndaul60I9zdVv+Txu20XhI6t3Q1uflp066wWeaTOJLFNMFWnUYz/ieTmaQ9T/84fbzjjbzrRUbTNm5o8tWqbs1FyZU2mHSj2F4Fhvndkaauo2Foew9Om2XTz8ZiHTRB51fOKox54Oc3Gq9zP8NuzCM0fLSSyo0VBIeEYIcZw7RpnlKLeTXXKrukGTQMhzk8rv6zn53s+CFgBg2k9soPNR6ww5q3fz2XE9su4peZYDUTDW6WHdlyxiDWWr3xugAZqzveny8aqrjUfsZ2pF2X11nDtmPndMl5Tx3WfX8lnYUscn4vgZPX1aNs8dTpr077uy1e+11e/l1skTIlTqD55nN3jId2+vxk/Xeq93sqsKljr7JYQ6SqWc8IzQnUOzHqo4tWNx4LVhzptUQbeneW5S0RS64FkFhDKvgEM/MQFN7Ko1Jues2cMnUDy6qRgdqPljfaDL0XJSxNHOlq3JKvmo9/8KZccc509cPlbFKKpxtp05/GZhasFCPiffEu4bg/CMUtJjT/O5kLAMGk53JkJIS9W2b0/t47PuBhFHn5bNbn/V1lATZmwmaKnaph4yjNEemtZgMmbmU25NQ2RRVHhGAkZotoaarz9ZGfQkFbdsRmd708n3Xw78bM1z04y+CgifTUVCvXbF7SnQbbfWrS8KfAvpkjLEbfYQwMn3fobPZf449PO92nhExNG+qfv89NB7CSHXrZbub5q5RTItVds6zx3n0NxiiCk9at8Ibrv15kDKDA6f/H12k+mLJuWBhrPtzL4l0/kkI0SQ3sNCEUfEmbMrQOpsbwotp/GuGj9dGz88hdG3RtKMYtE//cJv6wLhU1p4Rv4ZofVdb3M0mxvL1wfN1uOWzSgEQq3VH8vnZJfcqoBQxoqEV11EQoij2Xxkw9NB9135bOIRQk7vXI6OT4T7Y0qMSpO1aAfrq3RdqBdxNOGouogD0qPPOQ9HwogHxBpKnSDrPDqvq6vr/AlHy8nrVovryt+vtZ4a0BMkt8xGcT+dvE573YYiPikJECnUOgOjDHO/r8e8ZZ64pbZO7VjMqHLSyOyCGJUmOguDKZsCwzMiRGirZk1dWk4IOffHd4J+T/DMZqQpAcJzE48QYqncHPgkHuEbK7rt1uO/+knQnL0YlWbqkjJuhVuCrqVx67RGCLFUbkbGuSTGz2VexNXRbFZSoRehsm7O6ip2bw1Vgl6sobzdsqva7HV12eprOk580Wk5GubO54jJM8WaVQCt1aWifzq5bReP/+onTO8iuE2sJkHqKQRinPg4o5vh/J/eFf04t9dpr//g59NWVIg7LCEkVhV339QnsFarPMoMzwghbtvF2tWzgz7lcOs0TehqRRKOqXrClOo/+Ll8qoAQusNvhG+RxqAF9Akhptyivsd7WM8nzBMdEBpTbhGHrVrb6X2sL8GZ49yxs2Vr2J2PF3HLSz67Z35fz+VjVW37ysSq2kIIMY6fIco4ATiazad3rmAyMuO7CCJL0nQmBUi9ri7LrrdZjGyr32trqGGxoDxi8vcRnimPYsMzEqxhgtBpmltVKJq68LqkjEkvbOVWSpimSgrPKiCEEEvlZprAQ2tMnrq0nM9RhKAF9AnHLtiEEOuhipA7USpS3NB7+VyIWwTecaKaw1U4a6naNjwzj9Fet2bY/SyGlYpQVONizSfinhKMUWl03xkv4oB38vt6Tr5fwi7PiuldBBFErTMwug1aq0vZ3cBff7Jy+oYc0RffjZl5yG9UHiWHZwHo07InvfAun+d7R7P55PslQffKeZbcoCnlT/ju49FURBRwixiFuohBp8Tt8Bv5Zy0pPteCvrjFZm67VamlOL/+ZOXj7zAKz0awGFYS1kMVZ8vWsCjfYsgQ/7nwNmfL1rBu8tFYvgHhGYxiU4DU7+tp2f0ei5EFzrYzl49ViZ6LpI5PNGTkRG15JKWKuvBMrTOMLVrG53na6+qy7NoUdO+FZ6xIZHn4zdFsPr5lHs0TCbfaGzTn3/infYpYS4qzQcyOMbAuDcL5p9x+4Pd8LsSfs+0Mo9wedXyiAhaP6ZeoQnPP2EcYjSxw262t1R8zvQQhxHHumPVQBev3o899jen4ECY9m2b0l49VsT7327LnfRZ37z1jHxHxo8Pndoo1FIQsusIzfVo2hyrPAprUQaFcJLe8OMpyiDyrgBC6tE+BMTN/yuIyDrt5zvamug1FgcNFnoVJSITHZkwxvVE5L50QQi4dquR2Lf7OV21n9JYZNDjBG8nvDprPnDDFD09hNzgh5GzZGj4fUGfL1ozMLmD6RaDSDmU3uCiivFW3MZPJx0jHiS9YDNuX49wxZ3uT6N8pxvEzcCJdYaIrPBsxeSafjZeg9TYI9yc/mtL5MSrN+LlvcUvVo8yx7DW64CUOsRlNbRKehUkIIY5mM2Kz/sSPYPLQybNoUC9bQw3r3DBp2er3uu1WFpnJgzTxkVvukrIeUpiGpU9hN7jbbuVWnMBtu8giQ6wv7J4RQgYNlmnlRn1aNosHOb+v55u6z0Uf9k6Xj1eJ/uCn+854BWQQQF8xUk+AK9Zn7v2+Hkvl5r0lk4PWQpy44J3pb/2VW2xmqdy8b8n0wE9++rTsGRv3c4vNnO1N+xY/NqBv9LqNxY5mM7spEUJaq0vrNhYHfk7SGpNzVu/mFps525uObHgaH7v9Sbg/Xa0ziDWaWmcw5RZN+2Vl3pbjnGMzQkjbfsVmNva6wmZ9ml32LGvC4gvr2EytMzA9r3u2bA27we/Utq+M5+VAVhj1h7h6VrQSqYGxSJGIVcUZMnJEHxYkFF27Z45zx1qrSxlFILaGmq8/WRl08ZtnjzVC3UOMZxUQQoj1UMVX214a6EfhLZ/n4KrZ7A4C0dSN1CVl9O14zpqzvYmmP0Q00xpM+VtPXKrdddVydECNoWJUGo1+eFzi8Pjh3xliSo8fnsKobSglt93KZ+1WWlctR1l8Asdq4kUfkwNuiy/x4nXuvhO3bYde7LZhQf70qZNYDHulvobFsHdytp1hcfcOMaWjOoiSRFd4Rgg5vXNF4gOZ4m59UCbpqXWGCfM28VySp4mC1DpDVsmH3M5Q+X09J9/7WchpMLd8HvOWeY7zJ8QNJilnxfPsIiHEbbfWbShCbBaUOj4xZeaC3od+t91680a3p/MS+dcuw0JLK5V2aKwmYdDgBLk923E7uiMt15W/Sz0FufC6usxb5vF5g8cP/w67wS8fq+J/67bs3o4eaNEpkVldEBbD3lWn5ajoX0Ailkvxe1xiDQUhi7rw7JbPc2TD0zM27hfrvdFaXdpYvj7oVyznehuUESP/rby69UXhn65pqdrWee64WOX1va6uI+ueCrrByK0wicBtt9aumsW0VIBSCXcFz3oe4YuSrTNCyLXWUyyGVWl1LIZl6tTHr3E7ajjElM5ucElSDb89tY//RaMKo7NnYT4FaY3JLJ6j3HYrz2/bjhNfiL5Sr0vKEHdAkFZ0nT0TeJ322lWzvK6u4H80IGd70/4V/95Q+krQMhLTflmZVfIRt9jM1lCzt2QyTVuzaSsquMVmtoaaoOffBKbcoqCniRznju1bMt3WEG42gnAELmhsZsotQmwG7ETJ1hkh5JbP4/f1SD0L6bVWl3KrpUFYFvrzurokSakSMsT4X1cmVAl6qacQojAfvRLuGyPWTPrqtBxlMWx/nBfFX5eJH5ESo9KIPixIJep2zwRu28Xa12flvLEntC8toaFZa/XHQZ+oOG+aUZbO59zKiRByeufyoLMihGiNyQ8v2qEfk0XzD/E67YffLBz7zMqQOxNQFkxLLVjIM4vG6+qqW8+2xDbIiqPZzPNJnZ5aZxikiY9LHN67NyV0mfNe7ySE+NxOv8d109PtcVwZUGzp994QfaVDrPZ3fCqqe11djeXrOVyoF6MCp4SQrvMnGI0cFIsMMWAtzMchRu37HHxv4+7LLaKPGauKSxiZquzav1ElSsMzQoiz7Yx5y/wQtkSshyrOlq0J+vTMubMzoW7uzLkoPGVtEvKvoWysKm783HWmaYUn3y8J/HHT+Onaq41HQkjRpOy3Fk74FwKvq6v29Vn4hI0qJ98vkXYCMSrN0JQJvSVSdEkZmmEjBvQU5XV1ub4577JddF1pvdp4pOtCPc5MBnDq49c4vz6aYfczGplbQYU7scgQg16x6sFST+EuGC1291z7lsWw/bnl83hdXaL/WzTDRory8HDT0x3+IBCm6A3PCCG2+r1HNxXTR2jO9qaT779ME2lwLoTo9/Wc/9O7NE0J1TpDzurd3I7lUG5P9ddvTT8ma/qGvwXdRrPV7923ZDp92RXKPUZCyMQF73DrNEAI8ft6jqx7CrFZVLFUbpbkJ67WGYwTH78nfUriA5m674wP88NKHZ+oHpPVd9HHbbdeOfHFVctRW8OXfT8BGB0diSA8W4T10gwbwWjkznPHGY0c/NJ8E9JADhIfyGQxrJARwA2jj0GxkghADqI6PCP/jNCyFn0c+K0iZDMOKD1PvDkGQR80EkImzNvEs9kaTcQY+BUTttGGZ+YFDvO8Trt5y7yOE18ETSWlLATCP//T7+s5uqmY8ucIyuBsb7LsepvnFWNUmvumPjFi8vdHZhcwXT/SGky95TSd7U2Xj1ddbTxiP1ObnPcsi8vFDb2XxbAstB/g3d0uRqVhFBL7fT0SfmS5bRdZbEGAnMXpmSw0JM0o5naEUmtMnrqUyQIN0wpAwFm0h2eEEFv93trXZwVoZkVZm5Fw3zQj1Bl6vdr2lXEIObyuLvOW+TQfdsbM/KCxMSHEODFvxsb99R/8PPCY1oPltoYvxxYt62/Ly9neVLch+LGuGJVm6pIynompQmyGpiVRxe/rMW+Zx60iiBCYjStexf+4jm7Ug5FVSJMdv6/nYs0nnC+q0Q9nNLKro5XRyLQT+Oa8muNiaFTh+SRDKUalYfTxZXp0Trwx2Xq48rrV4nM7e7qu3PS4wslAFvpqDtIkxGriVVrdEFO6esgwIXWc3YchliqUBOEZIYQ4287Urpo1dWn5bW8bR7P51O+W0awO6pIyJr2wleemmdtuDRqu3MlWv9dSuZnpYSrKI3BkgCU3tAbTtBUVlsrNll1vB3ii9TrtDaWvtB34bMKP19/246Dshc35bB75Z9c1xGbR5uR7P+OW1mjKLZIkMIPbXD1by7/qT1wiq/BM8kzsrgv1PD+r5UPo4hht2C00EEL0/5qeLRDqTN680U0I6XF09Pd3e/f0hG4EUoVJ7CoAAX8Iz/7Bbbu4b8n03hNQzvamc398h+aEQIxKk/7ka6N/+DLPpSbroYpTOxaHtrTT+OlaoY2v6LMi1Lt5IW9PpRe+ahw/I2j45zh3bP/yPGNm/tiiZfoxWQPKTb0zSmctnD7dEKEslZv5/ND5p1tDAI6Wk1JPQUyuKxLvnnV3XJB2AkolzxLt7BYa+iMEWsL/yn95S6zCszfRlloGEJ79j1s+T0PpK61/2aEZNpJyK0OXlJG1aAfPp3nKftOBNZS+4nV1ibuHRj+xMF80/ZisnDV7aKpB2ur32ur3ao3JlFkKuqSMADmujJi3PofYLNrYGmpojmWGj3+6NQR2tfEI/4uy69l93WphNDIlRgX3vN3htkUFFiKx+zxAaBCe3c7ZdoYmYUOSTTNbQ039h78QJTem8dO13uudYrXzcrY3mbfMo2w5PenF34T5omkNppzVVZTVFylfLn1a9iPL/8A5J+H0zuWIzaKNraGmbmMx66vwPz8JQfl9PfYztVLPQkyc691xm0B0pg7KHyoTBsaobgpIAuFZKPhvmtHXgieEaI3JNDFJS9W2nmvfhh8s0ZcnEbFOvVDRUT96Ms1xsqCMmfkhdMALE2WrblASR7O5bmMx63Ig/M9PAg1XRyu3SjB9sXuo9bmdjEam5Om8zGJY7J7JUwQVaJWEcPINlAHh2YCNfWYl500z+r0prTF5XPEq06NzHM3moA2dCSHWg+Xe6500tRPvij6hUa0zZJV8KPpavlBtibISSb+DiLGhN1CWys2IzaKNsG/G+gFda0zOWbNH/sckxCVWBBKrYfh84+m8xG5wSfilPqOC/rmM4EE/mgmlUEBaMVJPIJJojcnT19WkF77K81HeUrl535LpNLFZasHCvC3Hhbr5QkPn1IKFQf+W0FfAbbcOdGKOZvO+xY9RHjabsXE/ozwr4SiaPi07tL+eWrAwq+Qj/rEZn6NHIB/WQxV89s2mLuV9fhIoSV6GXnSSR0dRW8NArCIQ/KkS9FJPASACIDyjJQQ/nEvn71/x742frg36SKdLypi+rmb83HV9wwwh/S9r0Y6gJZicbWf2LZlua6ihn1trdenBVbNp9qxMuUXTN/yN6fOi1mB6ZPkfjJn5A/2LY59ZKdbpO3qt1aWIzaKNpXIzhxZnMSrNI0s/Q4cx2ZKqzCBSwkA+fN2OkP8uzp5B9EB4RsWYmX9b8MOa9VDF3pLJNC3Xxj6zcvqGv/UXN5oenTNj436tMTnwIF6n/fCbhZbKzUEv53V1HX5rTkPpK5SHzfjsTanjE6csLhvQHlrWoh1M+7/dVWt1aUPpK5wvChIS3i98AvKHFm7HeTM5k7zOoeiidvNK8QZp4hmNjN0zdpCUqCQ4e0aF5wHoAVWop+mFrRv14IxNB8xb5gftFtD46dqrjUcyn/91f5td9C2nGR02C8DvvUF5EEKqonaIzaKNraHGvPWnofUnHChjZr6Q2AyyJXkhDdEN0sTzub0BgBtJKhjBbbB7RsVx7tiAcv9CZmuo2VsymSY2Sy1YGGDT7DbC5hLlUbS7Jjr6fT2Wys37l+fRxGZMD5vdld/Xc2TdU5QdEXLX7OYfm1kPVSA2ix5eV9fpncsPv1nI5+E1RqXJfP7XHC4E4ejpuiLNddk0ByOEDGJZSQUCYFrDRrYkb+QAwA12z2iZt/50xsb97M5Q0ZfO1xqTM3/6q4EGGMJRtIQRDwQtgi8kOppyi8YVrxL+vW67laYNtIB/IUSvq+vIuqdopqfWGXJW7+Z/OMd6qMK8ZR7ni4JUrIcqTu1YzHNXYfzct1AORP6UlwoYyywFjhK7HLwoh8A7EiG5UUkQntHyOu1164ty3tjDonMxfdKgKbdowvy3Q55DyswF8SNSaCrIWQ+Wf1P3ecrM+eohwyy73qbZ7BZadXM+0EUfm0lVcNx6qOKrbS9xvihIwtZQ01i+gXIhQyxaY3LS4//J84oQGuU9PKm0OmknEJc4XNoJSCU6C9+z2wdWBr94lVT9vh7OFa3hNgjPBsDZdubIuqdyVleJeNfSb5qJdZrLODEvd83uIxueDrq6f8vnoe/Nxf+wGSHEbbfWrS+iyWnUJWVMXSZBwXFbQ40ojbNB5iQJzARjnijB96j8+X09Un0OsEsJk7ySnuTxoVJJvi8KEOUQng2M49yxo5uKpywuE+V5iLJ5NAl70+w2+jFZOat3120oCqebc1+SBD9uu7V21Syaf4IxMz/k1tvh4NOGGCTkdXVdqt3V+pcdNO9iFtQ6A7bOIoLfe0PqKYhviCld2glIHh8GFU4d+QBY754h7o1EPvc1qacAokF4NmC2+r3hR2h+X8/5P71LkzSo1hkmzNskek023agHc9bsodx6Coz/YTNCiLO9qXb1bJrjPcbMfLHC6QFBbKZsjmZzy58/+Kbuc2l/xKmzX+R2bzuazdbDldetFp/b6fe4PF1XhJM/gzQJsZp4lVYnPCvHDb1XPWRY/PAUdUKiZtj98SNSsLlHCPF0dkh36cuMRo4fnsJoZEqSx4dBMaojH6sezGJYmUNpEG783hv43JYWwrNQ2Or3nnzvZyHHJM72ppPvv0yTB2XMzA9Q5j5MWoMp5409lAe3+jP2mZX8u4c5ms00yZmEEFNuUVbJRxymdBtHsxmxmSI5ms220/su1nwi1s5zmEY+XMDhKv19ZNG8B2NUmqEpE0ZMnjnqsR+hfokkbop3IuU26gTeKQm30adOknYCQTHaPWP96CzPbUl2Cw3K4O3uknoKIBqEZyESat+HEKFZKjfTbJrFqDTj576VMnNB6FOkoI5PfGT5H2pfnxXCHpokh83IQHalUgsWjp+7jsOUbuNoNh9cNRuxmWI425ucbWc6Tnxha/hSVl2edEkZrMuQ0h+O7c8tn8dx7pjj3DHLrrdTZs6X5C0pByKe2h8oj4NVQf/E0ZMZjUxJM+x+aScQFLsuzDEqTbR9y3RfbpF6CgCcIDwLnfVgufd6J33iHH15el1SRtaiHXzqv6vjE3Pe2LNv8WMD2g2QqtKGUAWR5jtp4oJ3WAe3d4XYLNK57dYeR0fXhfrujgvXrZauC/WyCsn6uv/RQqbjO9ubzFvmiXWsTig1pB4yjP9+e5S75fN4XV0sDt+q4xO1xmSpdpJjVBr+XVIGitHuGSFk0OAEb5R90bC7k5WB3c0G/CE8C4twDo2m7ERrdWnQhmOC1IKF44pX8cz6VccnJuc92/jpWso/L8lhM0JIa3UpTWfnGJXmoYXbRT+tR0PIukRsJiG33XrzRren85KQ5tH368rr+pfED+EYg1Cp2Xu909N52dN1RbaR2F0xzWykTyEekJbd743+4cs41cCZp7OD0UPtsPQpUoVnQ1MmMBoZj7lxQ++Vegp3x+5OvpPf1+P33rh5o/vmjW6/p1sovNGbQCjcJMLXSt9DcT3Xvo0beu+dPQDuenBOOMd75+/fNSH5zsaJN290M3reuHmjG2GwtBCehctWv7f29VkBtpLcdmv9Bz+31e8NOlRo/abD52xvatn9HuUfluSwGSHEUrmZJoCMUWmmLinj/xoSQpztTSweZyEot93asnt757nj11pPRU9srNYZ2G0dsNsE9jrtl49VSbJ6Ii1pi6qxS628J32KkOrP37C0hxmNzC4jUUSDNPFR+HXj6bzE4nNP+BK5brV4Oi/f9HTf9LjYRT5RDlEfJYRnInC2ndm3ZPojSz/Tj8nq+/v05RmJ2KXz6dGvkUt12IwQcnrncsrWcHf+FPigryQJoqNc/lCYxAcyGY3sdXUd3zKP3aOJ60oro5HDp9Ruvy7bRUYfjMMnf59QJDUwuXQmqy+jiNg9G6RheK/KszQIIcTV0Uomij/slRNfhHPCFkB0MVJPQCG8TvvBVbMtlZv9vh7hdxzN5v1Lv9f46VqaKiBZi3ZklXwkSWOug6uoggpdUsaMjfv5x2Z+X49563M0n5taY3LO6t2IzaKN39djP1Mr9SwkcM/YRxiNfOrj15imq123WtgNLlvSFlVjFxJrDSZdUgajwQOIUWnuGZfD/7pRQrZbHFctR1kMGxH7pRBVsHsmmls+T+OnaztOVKfOesFx/gTlSow+LfvhX/xWknrTlEe5iHSHzbyuLvOW+ZR5oTlr9kjyMrrt1roNRYjNpOLqaI3OFBRGJcXddqtUuWrADtOQ+P5HC/m3ZTdk5ET5CUbNsJHsXnbZhiuuK39nMeyw9Cksho1cN2+wSoeW7a0lNwjPROY4d8xM3UZMqnNchDpdkEg3Sa+ri7Livy4pI+eNPZKs9rnt1tpVs2TSAis6eTovST0FaTCqad5+4PcshgVpOS8yDJ9GPlxAX1lKLEkzijlfUW6Y5h9K3tGuP9daT/l9PaJH5lqDSZ+WHU4PWABxIblRGlpj8vR1NVKFPYffmkMTm8WoNNN+WSnJJN12677Fj9HEZsbMfMRm0Sw6G3GqdQZG93zHiWoWw4K0mDaM0o160JiZz278O8WoNCOzeTRkD99tBWNFxLS4omwbyt3yeVwdTDJ1kx57msWwAKFBeCYBU27RjE0HJDkl5bZba1+fRZkuKMlhM0KIo9m8b8l0mrDHmJk/ZXEZYrNoFhGH+EUXP+IBRiNfaz3FaGSQ0C2fx223shuf817WfVOfiPLMRsJy9yxGenej+QAAHSFJREFUpYkfkcJo8PBdPcvksPH9OU+qdQYWI0Nfst2YlRuEZ1zFqDQTF7wjSRUQQoitoWbfkumUW1IzNh2QpOMnfbUSU27RtBUVknxJe11ddeuLEJvRi9XEMxq5u+MCo5HlLH74d1gM67ZbORzkk21LJWXrZFNTQTAyu0BrTGY3/m1Sf/A8t2vJVvxwVhFUwshUOUe/jKqDqOMTR2EDDWQD4Rk/WmNy7prdKTMXSHL11urSw28W0oQ9qQULp62okCSAtB6qqNtYTNm8O6vkIw5TuhP9oTjg4M7un9GAUYTD7jh4X7Kt2a1sjvMn2A0eq4obV7yK3fh9GTPzJck9Cc1dmxGLgl3BzHsnzGA0sihsDV8yGjn9ycUxKg2jwSMLu06JKu1QRiMrDMIzToT9KEm+VITa9DRFGoUS/+PnruMwqzu1Vpea6botjX1mpVSTRGwGCsbuK7kvdqv+EEDnueNMxzc9OodPhf2xRcs4XEX+dKMeZJSMZ5pWyGJYsXiddkezmcXI6vjE9CdfYzEy9Ipl2a9PSRCecZI0o1iqI1L7l36PplK2WmfIXbPb9OgcDrO60+mdyymr/Gct2iFVuUuvq+vIuqcQm8kKu8VpOWO0AcXni1OSNlkglLxjeolJL2xlOj4hxJRbFEFbZ6wZJz4u+pi6pAymr7AoR4+shyvDH+SuUmYu4JmmG4U0w0ZIPYXIgPCMk3OV77D+arwT/WEzfVr2jI37Jdzco68kKVUAKcRmKLwrNz63U+opKMegwczDM7XOIMmhVslJXsPmls/j/PtpppfQj8lKLVjIbny1zsAthTIisDiD991n2fZIEKXW7ren9oU/yF2p4xMlv8e0xmQFh4jq+ERkkNJAeMaJs+3M+T+9y/OKlsrNlIfNTLlFOaurJOnp7Pf1HN1UTLO5F6PS5K7ZLUklSUKI39eD2Eye/B6X1FNQDg5FO1is90cEOTRjtZ3ex/oS44pXsdsdnTBvkyTfU+FgejhWPybLlFsk4oDGzHzWX7Ki7J45286wq0RqenQO50YR/3L13KIZmw5MXVqu4DKSCSNTpZ5CBEB4xo9l19vO9iYOFxI6m1H2CR37zMqsko+kqn9Yu7qApsq/WmeQanOP/DOGRGwmTze5HJeKErGqONartiMmf5/p+LIl+e4Z4dLULlYVN3UZkydLU26RVKkTcjZh/ttivWfVOkPm878WZagAxOpU2bJ7uyjj3FXWoo/5R0fC4X+hsrdu1IOPLP1Mwl0mn/sau8E1w0ayG1wxEJ7xc8vnqdtQxK5JpcDZ3rRv8WM0MY+EXafJPzuw0cQ8Qgc2qRKihNiM5vUESdzE7pmo4hKHsxtcrTNESjdhRXKcO8b6C4gQojWYclbvFvfJ0piZP+nF34g4oGKo4xMfXrQj/Fc7RqXJKvkwgjYn2w98xu7AiDo+MavkQ0aD35U+LTt/64m+CxD6MVkPLWQYgkronrGPSD2FCIDwjCu37eKpjxnWBbIeqqBs6Cxh12lCiLO9qXYVVf1DXVJGzpo9Un1nIDYDebputTAaeVjaw4xGJoSkzn5Rzv2UooGtvobDVXSjHsxds1us/QdjZn7Woo8j9M7hULtIPyZr6pKycCK0GJXmoYXbpXoeCI3Xab98rIrd+MaJeVmLdrAbv1eMSjP2mZV3PWBienTOxAXvcJgDZ8bxM6SeQgRAeMab9WC5pXKz6MMKBTYoC9NL2HWaEOJoNteunk0TQ+rTsnPeQGwGgfBp1SU37J75hmeyekTTJWWM/uHLjAYHSh0nvuBzIf2YrBkb94d/Ds2UWzRlcZkkdY8jiHFiXu6a3aFlOap1hqlLyiIxcbRlz/tMx+cQHemSMmZs3J9e+Gp/qw8pMxcwLbcjCf2YLNTvDQrhmQQaP11rPVQh4oDO9ibK6vlE0q7ThBBbQ83BVbNpCpYYM/NzVldJ+K188r2fITYDefJ0XmY08j3jclgceIhRaSa9sFX+GyCKj/a/qfucQ36jQGsw5byxJ+SHS7XOIBzF4X/biPgSsXur3kY/JmvGpgMDrRRizMyXMI8mTI5zx1if50+ZuWDaLytZnENT6wwTF7wzfcPfgi6Uj5+7TsJSJYykFVI1UopmCM+k8dW2l8TqqygkNNIkCkrbdZoQ0lpdevjNQpr9PWHFVMKHOfPW5yjDXZAWze2kPN2XWxiNHKuKY9GYdfzct9CuSg5u+TyXandxu5w6PnH83HXT19Xo07Lp/5bWmDz2mZW3HcXhScRlQZ61i9TxiVklHz3+X0dNuUWBF1liVBpjZv70dTXTVlRE0HmzO339yQrWlzBOzJuxcb+IAVKMSpNasDB/64mUmQsoH3KyFn2ssO0m06Nz6BduYlQaXVKGMTNfYS9CYIOknkCUuuXzHNnw9IyN+8P5ZPT7es6WraHpGEYIUesMjyz9TMInJEvlZspikqkFCyWMIQlis8jBv5egTNzyeZztTYzyk1NmLmjZ/R7NFjeliQveSZm5QKzRIExtBz7j/OPQj8ma/tZfHc3mlj9/YGv4sr9bS60zGCc+PmLy9yVPtBNz98xxRayhKOlGPZhV8pF3/tu2+hrH+RPXrRZP5+Wbnu5BmgTNsJFDTOn60ZONmXnKyBe11e91NJtZP9hoDaZpKyqshyrOVb5DsxTeH7XOkDr7xZSZCwb64qvjE6cuK9+3ZLqIH8uBiVVgM4Dxc9cNz8w7X7W960J9778rRqVJGJkq3KgJIx6IH5GScH9673Oy39dT/cI4bi+CtBCeScbrtNeumhVy3Qtne5N5yzzKTwp9WvbDv/ithItkp3cupwwjxz6zUqpikgLEZhHE770h9RQk42w7wyg8E6qWHX6zMPyhhJIDkj9tQ19CShj/s8f6MVlZY7IIIc72JmfbGV+3w+vq8l7vTBjxgCpBr0vKUGS/8ls+j9tu5f/lq45PND06Jxreeo3l66etEPO0SH+E19N6qKJtX9mADj7EqDT3TX1ixOTvj8wuCDknSGswPbL0s4OrZispYcQ4MU9IrPX7evzeG0Gj1lhVXOIDmVFy6gThmZTctot164ty3tgz0KWU1urS0ztXUL5LTblFk178jVSJgn5fz8n3fkYZ8Ei+yn5653LEZhARHOcZpn4JVcu+2vZSOI8Cxsz8zOd/HdGpU0p18ctPJMxQ0I16UJGRWH+6L1nwLuglegNAW/1e66EKboGoEKS57dYrJ764ajnqvHjmrqvkap0h8YHMIab04Zl594zLEeUBTD8ma/zctxpKFXhqK1YVR/kSDTGlIzwDHpxtZ2pfn0UfoXldXac+fo0+hJB2M8rr6jJvmU/ZhE3yVXb6LT6QCcUXcgjg8rEqpk/Ypkfn6JIyvv5kRQjfhfq07LFFSyO03gAj3Apy0Git/jj9ycXKSG+TP0fLSbwXmDpbtiacjakQaA2mlJkLhNVkv6+n59q3PY4O4T/F6UcMGpzA6M2VMnNBd8eFaH5QUQ8ZJvUUOEF4Jj36CM3RbD6+ZR5NSXpCSIxKM3VJmYTfCm67tW59EWXNEmmnShCbMeZH82ixuW0XWSdN6UY9OG1FhbO96fLxqkuHKoO+l7XG5JHZBaZphZFbBcTPsZCDhG75PJZdm6Q94hs9rjYekXoKCue2XTz53s+ySj6S5OqxqjitwcRtg3T83HXXrZYo2UG6U/zwFKmnwAnCM1kQIrSpy8r7e4cPqAoIIURrTJ66tFzCBBJne1PdhiKaSFLymiUEsRlEpvYDv+ewNy6koqUXvur39bg6WvueGhIWMtXxibcd4Ab5wwYaN/YztX5fj/y7SkQ068HypOk/ipJdyqxFH9e+PiucIiWRS50QLR9ZCM/kwtl2pnbVrLvGVI5m88n3S+jfisbM/KxFH0v4vetoNh/Z8DRNdR3Jw0iC2CySRXNyIyGk40Q1z9TlWFVctJ0aUjBsoHFzy+e5fKwqGqp0SMu89af5W09Ew4oDh0KOoh8RhIFC3zMZcdsu7lsy3dZQ0/s7fl+PpXLzwVWz6WOz1IKFUxaXSfgJZT1UQdl4WpeUkbNmD2IzgNBw6MoKCtZa/bHbbpV6FlGhbV+Z1FNQPq/Tbt4yX+pZcKI1mLJKPmQ3vqzOyval0g6VegqcIDyTl1s+z+E3C0/vXO51ddkaavYv/V7jp2vpi6dNXPDO+LnrJEyiaK0uNW+ZRzNhfVp2zhshNhUQi6VyM2IziGjn/viO1FMAKt7rnVJP4Xa3fJ76D34u9Syigq1+L1ZSOLDV77VUbpZ6FpwYJ+aNfWYlo8Fbdr8XtW1FZQLhmRy1VG3b8+Pkw28W0m+axag0035ZKW1VekvlZsqSr8bM/EeW/0HaJAT6NtkgW1FSyCGAb+o+xwYIhEwoSi71LKICVlL4aPx0bfTc0umFr5pyi1iM7HXaz//pXRYjhylWkyD1FDhBeKYEWmPyjI37JTwU6/f1mLc+RxntmHKLpE2/JIjNQClu+Twtu7dLPQuIYGfL1sg2kUlJsJLCzVfbXnI0m6WeBSdp/8GqDZo8N9AGDUZ4BhFCn5Y9Y9MBCU9weV1dtasLKFuxmXKLsko+kraGFWIz/m5G/TYXOzhBJCKf+xqjkXuufcto5DC5bRdPffya1LNQvls+z9myNVLPQnoc1gJu+TxHNjwdDZ+KQolsRoN7nfa2L/+b0eAhQ3gGkcGUW5SzukrCnSi33Vr7+izHuWM0f3jsMyul6kzSC7GZkrB7mI4geOyDMFkPlrdWl0o9C+WzHizvW/oL2PE67bWrZik7QnM0m2tXz6ZshBua5s+3ynADLUogPItgQrQj4U6Us72pdhVt842JC97hWQT8rlqrSxGbgfLgsU8s3u4oTfNrKH0l4vLBIvHhu/7DX0R5Kim3Gjlu20UFR2i2hhrKEtnhcNsuym0DLVY9WOopcILwLCLFqDRZi3ZIG+3YGmr2LZlOs3IjzFbasiWEkNbqUsrKJQARx7z1p1H+2CdzMqzceJvjW+ZFyrOs19Vl3vrc8V/9ROqJDJj8U0md7U3mrc8pY7lHqRFaa3Xp4TcL6Wt6h6OxfL2sNtCip707wrPIE6PSTF1SJm2PS+uhirqNxTSfDnKYLUFsBkoXVT1/2InmZqyR8izrbG/at/gx68FyV8cFRpdgGkvLOZXUUrn5y/97ivVg+fkqVgWHOB/CFO5qJXU1OL1zOc+HGdmWcFQ8hGcRJkalyV2zW8IijYQQS+VmyuZmap1B8tkSxGYQHWTe88fRbN6/4t+V9Jw0ID63U+opBOe2XaxbXyTnbVhbQ03veZubNyK14NDpnSvklkrqdXUdfmtOb/K//UytrPZMwuG2XaxdPVsB+4HCz4h/s1bLrrflv2qjPAjPIk/8faOlurTf13N653LK41tqnSFn9W79mCzWswoMsZmCRe1Jof7ItuePpXLz/uV5jnPHLn75idRzCYRdZNLTdYXRyOJytp2pfV2me2it1aV1G4t7z9vwSe5i4ZbPc3DVbPksVQglvmz1e3t/55bP4+polXBK4vI67XUbi+X52UhJ2DTu+zPiBv3rJYHwLMLc8nksuzZJcmm/r+fopmLKlRuhFZuE5f4F1kMViM3k4KbHJfUUosVX216S1VPIbavy160WaecjlQh6CzjbzuxbMl1W2zvCymBD6Su3hWRy3ugL7JbPU7t6thzC4P5KfHk6L7G4nFSHMG/5POYt88xbn4u4XUG/r8dSuZnyqD8jtvq9ss3IVSqEZ5GnpWob/216obkZ5cqNLikjZ80ercHEelaBWQ9VmLfMk3YOAJzd8nnkE6HdueLbdaFewvkExe7ZMbIy8bxO+8FVs2VyF3ldXf2tDEbWq3obofi7tHtoAYqzM9o9kzbL13qwfP/S78ln3zIoR7N5/9LvNX66VvK94obSVxSQIBpBEJ5FJPPWn/JcdXPbrfsWP0bZ3Eyflp3zBmIz+BcR/RQVcYR1YsnPofU9JtTL67TLYceAM7+vR/Knq4ES7qLTO5dLu0MlYU4XB8KxKKmihcDF2buZVV6RlrA5bKncLPNtNK+r6/TO5fuX51H2LuKgbmOxrDbVlQ3hWUTyOu3cDnA7ms30u+rGzHxp22QLEJvJTcQ9mypA46drzVufk+rZ2lK5+fCbhXd98uu0HOU/H0qMyspxrlYnopaqbXtLJku1at5aXSptThcHXqd935Lp/F9h4R0a4JOZ1XtBBocwb/k8jZ+u3b/0e/LcDvK6uiyVm794Lp1/FZDAhDOT0r5okZvPPFAIzyKVs+2Mect81ss/A2p9aMotmrK4TPKuFNZDFV9te0naOcCdWNyr0VwGnYb1YPm+xY9x/jZ12619D5vdyXH+BM/5DIjryt9ZDNt9KYJP3Hmd9sNvFpq3Psdzk0e4i+48bHYbZWzL3/J5Dr9ZeHrncj6Xu+04aL9/jE2ir8chfXgmcLadOfxm4eG35shnR8jv62mtLt1bMlkO2Yx3dcvnqdtYLElqhttuPb1z+RfPpfO/tCQGST0BCJ2tfu/ZsjXj565jNP6Aah6mFixkNxN6Qmwmz8+1KOf33pA8dI9CbtvFw28WmnKLxhWvYp1y7Pf1nP/Tu5Zdbwd+A3aeO850GuFgtLTvaDnJYlierAfLrQfLTblFaf/xCtOaT15Xl2XXptbqj6PtY7ylalvnueOTXniX6ctrPVRxasdimiVXFofE3Har3H6stvq9tvq9xsz80QUvSdgEyG23tuze3n7gM8rVcAkJe49XG49899m3+JR/czSbW/78gfVgOYdryQfCs8jWUrVNPWRYeuGroo9sqdxMWUCfEDL2mZUs5jBQtoYaxGaydfNGt+RZr1HLerD8m7rPU2bOT539EosgzevqulS7q/nzrTR5aI5zx5ztTZKXdb0rt+2io9ksbjsQt916sUbW7QToCUGaMTM/aUaxMTNP3He0225tP/D7lt3vyf8JlRHHuWP7lkxPmTk//cnFon9aWg9VtOx5n/IMOSHEz6DWaPuB34s+piiEIE2XlJHyv+bdn/Mkt68qv6/n6tna81XbI+50pa1+774ztey+U8g/v1baDnxGf9Mqyb9JPQEQgbjRkd/Xc/K9n9EvVExc8E7KzAViXT1ktoaauo3FiM1kS2tMHpldoB89Od6YHKtJGDQ4gRAi/G9fvdlKN290+z3/+LXPfU34hdDorDen8bL5zxH3rSatGJXmvqlPJE3/0T3jcsLfzHTbrZ2Wox0nvvim7vMBvfWEmyFhxAOqBL06IVGlHXrbLXFb0lqPo0P4BZ87wZiZP8SULtyrcfoRgwYnDOhxze/r6bn27c0b3Z7OS1fqayJiRTwEMSqNISMnaUbxsPQp4TyfeV1dtvqatn1lIfwEH/+voyzi/NM7l0t77CdGpUmZOd80rTD8lQJne9Pl41WXDlUOtMKEWmdInf1i752vStD/4/cTEgkhKu1Q4f/2vnMFvb8W3sLCO9dlu+g4f6Lz3PGIeM4WbuyRWT9gF6cJUVnb/t/bGr6M9A+H3u8UUfYehe+UCLpb2EF4phBixUheV5d5y3zKr8kYleahhdtNj84J/7phQmwGMCDCI8gQU3rCiAfiR6SotEPj9CNIPwGzECr73Ne83V2uK63e653XrZauC/WR/mAxIDEqzb88hmrie3/dt6fZzRvdUfhBpDUmD0ufMsSUrk+dJNxLAQI2r6vL9c35rgv13R0XwnwIm76uRtytToHk4VmvGJVmaMqE+OHfGWJKjx+eok5I1Ay7f9DghP5eXq+ry9PZ4em85Gg5ed1q6bQcVXZhFdZ0SRn3TpihHz1Zl5QRPyIlzCUtZ3vT1bO1Vy1HB7qeFRHUOoNx4uPCh4Bwl8YNvffOV0yo7eHp7PB7ul22i75uR3fHhetWi6fzcvflFuW9LCFDeKYcWYt2hBkpue3WuvVFlGtsMSrN1CVlEuZq90JsBgAgN2qdoTeIHaRJuOnpvulxiRvSKz48C0ytM/T9v9G5NMBNjEqTMDJVl5zRG4Foho0IsL0mLEO4bBddV1qvNh6xn6mNwp9O31Ut3J8DgrNnyiGUkg85QnO2N9VtKKJcaVPrDI8s/YzF9+JAITYDAJAhr9MeVfur/OHl5emWz+NsO3Pb+nWMSqPRD49LHK7S6gghPrfT73GxWImIULd8Hi8ez0KC8ExRzFvm+bodIWQ5DijIUesMOat3y+Fkv6PZjNgMAAAA+Lvl87htF5FBCqJDeKY0Qin8AUVoAyqgrzUmT11aLpPY7OCq2YjNAACiU2+pGAAAJUF4pkADitAGVEBfl5QxdVk56+5JNBCbAQAAAIDyIDxTpobSV7yursDV9v2+nqObiulrGevTsh9Z/gc5tK5yNJuPbHgasRkAAAAAKAzCM8Vq/HSt93rn+Lnr7vpf3Xbr8V/9hL6isTEzf8risvAbJYVPiM1w6BYAAAAAlAfhmZIJpYHvjNAGVKSREGLKLZr04m8QmwEAgHwI3clF13PtWxbDAgBQQnimcC1V23qufds3uBpoJfrUgoX9bcFx5mxvQmwGAABMxQ29V+opAEBUQ3imfNaD5d7rnUJq4oAKgRBCxj6zMvABNm6c7U21q2cjNgMAAKawewYA0kJ4FhVs9XtrFj0clzic/rAZIWTigndCaKHGAmIzAAAAAIgGCM+ixUA7JyI2AwAAAADgDOEZ3C5GpXlo4XbT/9/e/bxIXcYBHH/cmm1zc7e1YZWwQkksDwYilJqH6BBslyLwD6hbdOuQVJSR4KWDF4nAQ14KF5IENYK62KZLLpUs0kZI6YwNbsPuOq7Dzsz+6DBb9kPdmdmv84zu63VaZnaf53Nb3ny/3+e7/aXYg4SgzQAAWEraYg9Aa9FmAAAQi6tnXNOW6njqjU96n3g29iAh/HX6vzYDAGDpkGfMa+9Kb911qGf9ltiDhBBCMZ+t681sAABwB5BnhBBCe1f66d3Huh56LPYgIYRQzGcH3u3TZgDcRGVyPPYIAMnz7BmhLdWxddchbQYAAHHJM0L32k2tc0+jNgMAYMmSZ4TSxKXYI4SgzQCoR/nqROwRAJInzwjF0fO/fnkg8gzaDACAJU+eEUIIwwffKmRGYu1evjoxuNc5jQDUoXxlLPYIAMmTZ4QQwmxlamjfy1FuFCnmswPv9BUunG3+1gAA0FLkGfMKF84O7XtlplJq5qbFfHZw705tBkC9Spf/iD0CQPLkGdeM/vjVDx++1rTttBkADXNzI3BHkmf8S/ab/uGDbzZhI20GwGJMjeVijwCQPHnGf507uv/nwx/c0i20GQCLNNUab4UBSJY84zp++vT9W3fUfvUMfW0GwGKUC/kmPy8N0ATyjOs7c+D17LefJb5s9bqZM/QBWLzCb8OJr+mRNiAuecYNfb//1dEzXye4oOtmACTo3BcfJb5m+4qVia8JULtlsQegpbWlOna8d6xn/ZbFL1VtM9fNAEjQ8t5HVm54csWaDZ2r1rbfd38IIbW8+0a/XCleDiGUJ+df8lmZHK/+8PdrP8tXxnLfHfWvCohInrGARApNmwEAwILuij0ArW5udjpzor930zP3PvBgYytoMwAAqIU8Y2Fzs9O508fTG7c3UGjaDAAAaiTPqMlMqZg7fXzV5ufu6U7X/lfaDAAAaifPqNVMqXjx1Oe1F5o2AwCAusgz6lB7oWkzAAColzyjPtVCu/lzaNoMAAAaIM+o20ypmDnR3/Po5s7V6/7/bSEzcnLPC9oMAADqJc9oxNzs9MVTRzpXr+t6eOM/Py9kRgZ2Pz81los1GAAA3L7kGQ2am53+ffDIsrtT6ce3VT8Z/2Xo5J4Xy4V83MEAAACWqDU7dvZ9fH7b24fbUh2xZwEAAAAAAAAAAAAAAAAAAAAAAAAAAAAAAAAAAAAAAAAAAAAAAAAAAAAAAAAAAAAAAAAAAAAAAAAAAAAAAAAAAAAAAAAAAAAAAAAAAAAAAAAAAAAAAAAAAAAAAAAAAAAAAAAAAAAAAAAAAAAA4Pb0J+igUa3vuQfdAAAAAElFTkSuQmCC;" vertex="1" parent="14">
                    <mxGeometry x="20" y="96.35" width="80" height="20.31" as="geometry"/>
                </mxCell>
                <mxCell id="13" value="" style="fillColor=none;strokeColor=#CC0066;dashed=1;verticalAlign=top;fontStyle=0;fontColor=#5A6C86;fontSize=12;strokeWidth=2;" vertex="1" parent="14">
                    <mxGeometry width="110" height="130" as="geometry"/>
                </mxCell>
            </root>
        </mxGraphModel>
    </diagram>
</mxfile>